<svg xmlns="http://www.w3.org/2000/svg" viewBox="0 0 256 256"><defs><style>.a{fill:#6ac3dc;}</style></defs><path class="a" d="M6.86,142.84.55,100.65A1.45,1.45,0,0,0,0,99.73l8.7-.12L26.47,125H17.71l-7.48-11.75,4.42,29.17a1.3,1.3,0,0,0,.49.93l-8.28.17C7.11,143.42,6.92,143.37,6.86,142.84Zm36.77,0-4.47-29.63L35.05,125H26.47L36.89,99.61l8.21-.17c-.12.17-.06.35,0,.75l6.32,42.19a1.3,1.3,0,0,0,.49.93l-8.28.17C43.82,143.42,43.69,143.37,43.63,142.84Z"/><path class="a" d="M53.31,112.11h8.34l6.68,10.25L66,130.92Zm8,43.93L58.46,150a7,7,0,0,0,3.13.64c4.47,0,8.64-3.36,10.6-10.65l7.11-27.84h8l-7.72,29.23c-2.63,10.13-7.72,15.22-15.56,15.22A7.2,7.2,0,0,1,61.34,156Z"/><path class="a" d="M97.74,142.84l-6.31-42.19a1.45,1.45,0,0,0-.55-.92l7.84-.12L119,125h-9.32l-8.52-11.11,4.35,28.53a1.33,1.33,0,0,0,.49.93l-8.27.17C98,143.42,97.8,143.37,97.74,142.84ZM119,100.65a1.58,1.58,0,0,0-.56-.86l8.34-.35c-.12.17-.06.35,0,.75l6.31,42.19a1.33,1.33,0,0,0,.49.93l-8.21.11Z"/><path class="a" d="M144.56,113.56l2.27,16.38c1,5.15,6.49,8.1,12.07,8.1,4.66,0,8.88-.92,11.09-2.78l2.33,5.44c-2.45,2-7.42,3.53-13.79,3.53-10.72,0-18.51-6.13-19.92-15.74C137.63,122.07,139.78,116.45,144.56,113.56Zm26.17,12.21a15.89,15.89,0,0,1-.06,4.23l-12.81.17-.8-5.44,6.25.23a9,9,0,0,0-7.54-7.52l-.49-6C164.54,112.4,169.68,118.83,170.73,125.77Z"/><path class="a" d="M170.48,112.11h7.72l3.74,8.57-2.33,10.24Zm21.51,0h7.17l15.38,31.31h-7.29l-10.48-21.35-4.47,21.35h-6.38ZM211.78,120l1.17-7.87h7.54l-3.62,18.75Z"/><path class="a" d="M225.63,121.55c-.92-6.25,5.64-10.19,13.91-10.19,6.5,0,10.73,2.78,11.52,3.53l-1.22,5.73c-1-1.21-5.4-3.47-10.24-3.47-3.92,0-6.8,1.33-6.49,3.41l1.1,8.68C229.8,128,226.3,126,225.63,121.55Zm2.76,19.33.18-6.89c1.47,1.45,5.89,3.65,10.85,4.11l.49,6.08A23.66,23.66,0,0,1,228.39,140.88Zm20.22-6.25c-.18-1.39-1.84-2.49-4.17-3.19l-.61-6.65c7.29,1.5,11.28,3.35,12,8.39s-1.47,8.51-6.13,10Z"/></svg>